<svg xmlns="http://www.w3.org/2000/svg" width="316" height="100" fill="none"><path fill="url(#a)" d="M119.064 90V16.597h26.164c5.711 0 10.442 1.04 14.193 3.119 3.752 2.078 6.559 4.922 8.423 8.53 1.864 3.584 2.796 7.622 2.796 12.114 0 4.516-.944 8.578-2.832 12.186-1.864 3.584-4.683 6.428-8.458 8.53-3.752 2.079-8.471 3.118-14.158 3.118H127.2v-9.39h16.989c3.608 0 6.535-.621 8.781-1.864 2.246-1.266 3.895-2.986 4.946-5.16 1.051-2.175 1.577-4.648 1.577-7.42 0-2.772-.526-5.233-1.577-7.383-1.051-2.15-2.712-3.835-4.982-5.054-2.246-1.218-5.209-1.828-8.888-1.828h-13.907V90h-11.075Zm84.18 1.111c-5.162 0-9.666-1.183-13.513-3.548-3.846-2.366-6.833-5.675-8.96-9.928-2.126-4.253-3.19-9.223-3.19-14.91 0-5.71 1.064-10.705 3.19-14.982 2.127-4.277 5.114-7.598 8.96-9.964 3.847-2.365 8.351-3.548 13.513-3.548 5.161 0 9.665 1.183 13.512 3.548 3.847 2.366 6.833 5.687 8.96 9.964 2.127 4.277 3.19 9.271 3.19 14.982 0 5.687-1.063 10.657-3.19 14.91s-5.113 7.562-8.96 9.928c-3.847 2.365-8.351 3.548-13.512 3.548Zm.035-8.996c3.346 0 6.117-.884 8.316-2.652 2.198-1.768 3.823-4.122 4.874-7.061 1.075-2.939 1.613-6.177 1.613-9.713 0-3.512-.538-6.738-1.613-9.677-1.051-2.963-2.676-5.34-4.874-7.132-2.199-1.793-4.97-2.689-8.316-2.689-3.369 0-6.164.896-8.386 2.689-2.199 1.792-3.835 4.17-4.911 7.132-1.051 2.939-1.577 6.165-1.577 9.677 0 3.536.526 6.774 1.577 9.713 1.076 2.939 2.712 5.293 4.911 7.06 2.222 1.769 5.017 2.653 8.386 2.653Zm46.287-65.518V90h-10.717V16.597h10.717Zm35.587 74.514c-5.161 0-9.665-1.183-13.512-3.548-3.847-2.366-6.833-5.675-8.96-9.928-2.127-4.253-3.19-9.223-3.19-14.91 0-5.71 1.063-10.705 3.19-14.982 2.127-4.277 5.113-7.598 8.96-9.964 3.847-2.365 8.351-3.548 13.512-3.548 5.162 0 9.666 1.183 13.512 3.548 3.847 2.366 6.834 5.687 8.961 9.964 2.126 4.277 3.19 9.271 3.19 14.982 0 5.687-1.064 10.657-3.19 14.91-2.127 4.253-5.114 7.562-8.961 9.928-3.846 2.365-8.35 3.548-13.512 3.548Zm.036-8.996c3.345 0 6.117-.884 8.315-2.652 2.199-1.768 3.823-4.122 4.875-7.061 1.075-2.939 1.613-6.177 1.613-9.713 0-3.512-.538-6.738-1.613-9.677-1.052-2.963-2.676-5.34-4.875-7.132-2.198-1.793-4.97-2.689-8.315-2.689-3.369 0-6.164.896-8.387 2.689-2.198 1.792-3.835 4.17-4.91 7.132-1.051 2.939-1.577 6.165-1.577 9.677 0 3.536.526 6.774 1.577 9.713 1.075 2.939 2.712 5.293 4.91 7.06 2.223 1.769 5.018 2.653 8.387 2.653Z"/><rect width="100" height="100" fill="url(#b)" rx="50"/><path fill="#000" fill-rule="evenodd" d="M16 50.5c21.929 0 34.5-12.571 34.5-34.5 0 21.929 12.571 34.5 34.5 34.5-21.929 0-34.5 12.571-34.5 34.5 0-21.929-12.571-34.5-34.5-34.5Z" clip-rule="evenodd"/><defs><linearGradient id="a" x1="204" x2="204.958" y1="129.5" y2="40.207" gradientUnits="userSpaceOnUse"><stop/><stop offset="1" stop-color="#C4C1C1"/></linearGradient><linearGradient id="b" x1="45.833" x2="45.833" y1="131" y2="33.173" gradientUnits="userSpaceOnUse"><stop/><stop offset="1" stop-color="#C4C1C1"/></linearGradient></defs></svg>